<?xml version="1.0" encoding="UTF-8" standalone="no"?>
<svg
   fill="none"
   viewBox="0 0 16 20"
   stroke-width="1.5"
   stroke="#ffffff"
   width="8"
   height="10"
   version="1.1"
   id="svg19"
   sodipodi:docname="save.svg"
   inkscape:version="1.1 (c68e22c387, 2021-05-23)"
   xmlns:inkscape="http://www.inkscape.org/namespaces/inkscape"
   xmlns:sodipodi="http://sodipodi.sourceforge.net/DTD/sodipodi-0.dtd"
   xmlns="http://www.w3.org/2000/svg"
   xmlns:svg="http://www.w3.org/2000/svg">
  <defs
     id="defs23" />
  <sodipodi:namedview
     id="namedview21"
     pagecolor="#ffffff"
     bordercolor="#666666"
     borderopacity="1.0"
     inkscape:pageshadow="2"
     inkscape:pageopacity="0"
     inkscape:pagecheckerboard="0"
     showgrid="false"
     inkscape:zoom="67.416667"
     inkscape:cx="6"
     inkscape:cy="4.8133498"
     inkscape:window-width="1920"
     inkscape:window-height="1017"
     inkscape:window-x="-8"
     inkscape:window-y="-8"
     inkscape:window-maximized="1"
     inkscape:current-layer="svg19" />
  <path
     stroke-linecap="round"
     stroke-linejoin="round"
     d="M 14.48865,11.946596 V 9.6755676 A 2.9198927,2.9198927 0 0 0 11.568757,6.7556742 h -1.29773 A 0.97329756,0.97329756 0 0 1 9.2977302,5.7823769 V 4.4846468 A 2.9198927,2.9198927 0 0 0 6.3778374,1.5647541 H 4.7556751 m 0.6488651,10.3818419 2.5954592,2.59546 m 0,0 2.5954606,-2.59546 m -2.5954606,2.59546 V 9.3511346 M 6.7022704,1.5647541 H 2.4846475 c -0.5372603,0 -0.9732976,0.4360373 -0.9732976,0.9732976 V 17.461948 c 0,0.537261 0.4360373,0.973298 0.9732976,0.973298 H 13.515352 c 0.537261,0 0.973298,-0.436037 0.973298,-0.973298 V 9.3511346 A 7.7863805,7.7863805 0 0 0 6.7022704,1.5647541 Z"
     id="path17"
     style="stroke-width:1.29773" />
</svg>
